<?xml version="1.0" encoding="UTF-8" standalone="no"?>
<svg width="215px" height="65px" viewBox="0 0 215 65" version="1.1" xmlns="http://www.w3.org/2000/svg" xmlns:xlink="http://www.w3.org/1999/xlink" xmlns:sketch="http://www.bohemiancoding.com/sketch/ns">
    <title>mogo_white</title>
    <description>Created with Sketch (http://www.bohemiancoding.com/sketch)</description>
    <defs></defs>
    <g id="Page-1" stroke="none" stroke-width="1" fill="none" fill-rule="evenodd" sketch:type="MSPage">
        <g id="Normal" sketch:type="MSArtboardGroup" transform="translate(-2114.000000, -534.000000)" fill="#FFFFFF">
            <path d="M2118.0655,561.658501 C2118.0655,551.087001 2123.759,541.9795 2134.0045,541.9795 C2142.9505,541.9795 2148.1535,549.1355 2148.1535,558.487999 C2148.1535,559.057499 2148.073,559.544499 2148.073,560.113999 L2121.0745,560.113999 C2120.994,560.601999 2120.994,561.170999 2120.994,561.578499 C2121.0745,571.010999 2125.1415,579.712999 2134.736,579.712999 C2139.3715,579.712999 2143.844,578.085999 2146.2835,576.0535 L2147.6665,578.330999 C2144.7395,580.526499 2140.266,582.314999 2134.574,582.314999 C2123.0265,582.313499 2118.0655,572.556 2118.0655,561.658501 L2118.0655,561.658501 Z M2145.145,557.592499 C2145.145,551.412999 2141.7305,544.662999 2133.8425,544.662999 C2126.6865,544.662999 2122.3765,550.517999 2121.319,557.592499 L2145.145,557.592499 L2145.145,557.592499 Z" id="Shape" sketch:type="MSShapeGroup"></path>
            <path d="M2155.637,542.8745 L2158.564,542.8745 L2158.564,549.4615 C2160.923,545.965 2165.72,541.9795 2171.5755,541.9795 C2179.463,541.9795 2182.634,547.1035 2182.634,554.3405 L2182.634,581.501 L2179.7075,581.501 L2179.7075,554.991 C2179.7075,548.7295 2177.43,544.663 2171.006,544.663 C2165.72,544.663 2160.7605,549.135499 2158.5635,552.795499 L2158.5635,581.500999 L2155.6365,581.500999 L2155.6365,542.8745 L2155.637,542.8745 Z" id="Shape" sketch:type="MSShapeGroup"></path>
            <path d="M2243.32001,542.8745 L2246.24801,542.8745 L2246.24801,549.38 C2248.19901,546.29 2252.26551,541.9795 2258.52701,541.9795 C2264.54501,541.9795 2267.63451,545.2325 2268.44851,549.7865 C2270.72501,546.127001 2275.03451,541.9795 2281.13351,541.9795 C2288.77751,541.9795 2291.54251,547.1035 2291.54251,554.3405 L2291.54251,581.501 L2288.61551,581.501 L2288.61551,554.991 C2288.61551,548.7295 2286.74501,544.663 2280.56401,544.663 C2275.19751,544.663 2270.88701,549.217 2268.93601,552.5515 L2268.93601,581.500499 L2266.00801,581.500499 L2266.00801,554.990499 C2266.00801,548.728999 2264.05751,544.662499 2257.95801,544.662499 C2252.42751,544.662499 2248.03651,549.704499 2246.24801,552.794999 L2246.24801,581.500498 L2243.32001,581.500498 L2243.32001,542.8745 L2243.32001,542.8745 Z" id="Shape" sketch:type="MSShapeGroup"></path>
            <path d="M2299.203,572.717999 C2299.203,562.309499 2310.7505,559.625998 2319.533,559.625998 L2321.403,559.625998 L2321.403,554.664999 C2321.403,547.752998 2318.476,544.662499 2312.3765,544.662499 C2308.6365,544.662499 2305.302,545.800999 2302.2115,548.728999 L2300.585,546.695999 C2303.757,543.686999 2307.741,541.978999 2312.62,541.978999 C2320.102,541.978999 2324.33,546.044999 2324.33,553.933499 L2324.33,577.959498 C2324.33,578.489998 2319.6755,582.313498 2309.7745,582.313498 C2303.5125,582.313499 2299.203,578.492001 2299.203,572.717999 L2299.203,572.717999 Z M2321.403,576.931 L2321.403,562.066 L2319.533,562.066 C2310.588,562.066 2302.2115,564.749 2302.2115,572.556 C2302.2115,576.947 2305.871,579.712 2310.099,579.712 C2310.948,579.712002 2317.83949,579.625 2321.403,576.931 L2321.403,576.931 Z" id="Shape" sketch:type="MSShapeGroup"></path>
            <path d="M2222.662,574.915501 L2222.662,569.647499 C2229.7225,568.912999 2235.246,562.927999 2235.246,555.675499 C2235.246,547.929499 2228.944,541.626999 2221.198,541.626999 C2213.452,541.626999 2207.15,547.929501 2207.15,555.675501 C2207.15,562.928001 2212.6735,568.913501 2219.734,569.647501 L2219.734,574.915001 C2211.516,575.459001 2205.0545,580.531501 2205.0545,586.691001 C2205.0545,593.212501 2212.2965,598.518501 2221.198,598.518501 C2230.0995,598.518501 2237.3415,593.212501 2237.3415,586.691001 C2237.3415,580.532001 2230.8795,575.459 2222.662,574.915501 L2222.662,574.915501 Z M2210.1035,555.675501 C2210.1035,549.557501 2215.0805,544.580501 2221.198,544.580501 C2227.3155,544.580501 2232.2925,549.557501 2232.2925,555.675501 C2232.2925,561.793501 2227.3155,566.771001 2221.198,566.771001 C2215.0805,566.771001 2210.1035,561.793499 2210.1035,555.675501 L2210.1035,555.675501 Z M2221.198,595.565498 C2213.9245,595.565498 2208.0075,591.584498 2208.0075,586.690998 C2208.0075,581.797998 2213.9245,577.817498 2221.198,577.817498 C2228.4715,577.817498 2234.3885,581.797998 2234.3885,586.690998 C2234.3885,591.584503 2228.4715,595.565498 2221.198,595.565498 L2221.198,595.565498 Z" id="Shape" sketch:type="MSShapeGroup"></path>
            <path d="M2193.734,542.8745 L2196.6615,542.8745 L2196.6615,581.500999 L2193.734,581.500999 L2193.734,542.8745 L2193.734,542.8745 Z" id="Shape" sketch:type="MSShapeGroup"></path>
            <path d="M2198.94,532.349 C2198.983,532.051 2198.701,532.022 2198.464,532.005 C2197.9615,531.968 2197.21,532.071 2196.8355,531.744 C2196.2525,531.234 2196.243,530.726 2196.1105,529.997 C2196.077,529.8155 2196.047,529.633 2196.0375,529.45 C2196.015,529.0385 2194.8985,528.837 2194.6995,529.1795 C2194.6125,529.328 2194.531,529.548 2194.4495,529.7025 C2194.2585,530.0635 2193.741,530.866 2193.6065,530.9945 C2193.1355,531.4485 2192.3515,531.905 2191.6085,532.0205 C2191.2685,532.073 2191.251,532.726 2191.2565,533.0115 C2191.267,533.6215 2191.5785,533.484 2192.129,533.574 C2192.725,533.6715 2193.2045,533.9195 2193.578,534.273 C2194.01,534.681 2194.3015,535.23 2194.4715,535.8505 C2194.5915,536.292 2195.1115,536.4495 2195.6245,536.5245 C2195.8955,536.563 2196.016,536.4155 2196.046,536.1485 C2196.123,535.4505 2196.3615,534.731 2196.874,534.214 C2197.255,533.8295 2197.7655,533.608 2198.3115,533.545 C2198.5105,533.5215 2198.8195,533.5815 2198.92,533.36 C2198.959,533.208 2198.915,532.5035 2198.94,532.349 C2198.9425,532.3335 2198.9365,532.372 2198.94,532.349 L2198.94,532.349 Z" id="Shape" sketch:type="MSShapeGroup"></path>
        </g>
    </g>
</svg>